<svg aria-hidden="true" style="position: absolute; width: 0; height: 0; overflow: hidden;" version="1.1" xmlns="http://www.w3.org/2000/svg" xmlns:xlink="http://www.w3.org/1999/xlink">
    <defs>
        <symbol id="icon-icon-black-star" viewBox="0 0 34 32">
            <path d="M15.277 1.031c0.579-1.375 2.551-1.375 3.13 0l3.417 8.116c0.244 0.58 0.796 0.976 1.43 1.026l8.869 0.702c1.503 0.119 2.112 1.972 0.967 2.941l-6.757 5.718c-0.483 0.408-0.694 1.049-0.546 1.66l2.064 8.55c0.35 1.449-1.245 2.594-2.532 1.817l-7.593-4.582c-0.542-0.327-1.224-0.327-1.767 0l-7.593 4.582c-1.287 0.776-2.882-0.369-2.532-1.817l2.064-8.55c0.147-0.611-0.063-1.252-0.546-1.66l-6.757-5.718c-1.145-0.969-0.536-2.822 0.967-2.941l8.869-0.702c0.633-0.050 1.185-0.446 1.429-1.026l3.417-8.116z"></path>
        </symbol>
        <symbol id="icon-icon-burger" viewBox="0 0 43 32">
            <path d="M0 0h42.667v5.333h-42.667v-5.333zM0 13.333h42.667v5.333h-42.667v-5.333zM0 26.667h42.667v5.333h-42.667v-5.333z"></path>
        </symbol>
        <symbol id="icon-icon-cross" viewBox="0 0 32 32">
            <path d="M27.179 0.918l-11.315 11.312-11.312-11.312-3.771 3.771 11.312 11.312-11.312 11.312 3.771 3.771 11.312-11.312 11.315 11.312 3.771-3.771-11.312-11.312 11.312-11.312-3.771-3.771z"></path>
        </symbol>
        <symbol id="icon-icon-empty-square" viewBox="0 0 32 32">
            <path d="M15.998 2.882c4.274 0 4.78 0.019 6.461 0.094 1.563 0.069 2.406 0.331 2.969 0.55 0.744 0.288 1.281 0.638 1.837 1.194 0.563 0.563 0.906 1.094 1.2 1.838 0.219 0.563 0.481 1.412 0.55 2.969 0.075 1.688 0.094 2.194 0.094 6.462s-0.019 4.78-0.094 6.462c-0.069 1.563-0.331 2.406-0.55 2.969-0.288 0.744-0.637 1.281-1.194 1.837-0.563 0.563-1.094 0.906-1.837 1.2-0.563 0.219-1.413 0.481-2.969 0.55-1.688 0.075-2.194 0.094-6.462 0.094s-4.78-0.019-6.462-0.094c-1.563-0.069-2.406-0.331-2.969-0.55-0.744-0.288-1.281-0.637-1.838-1.194-0.563-0.563-0.906-1.094-1.2-1.837-0.219-0.563-0.481-1.413-0.55-2.969-0.075-1.688-0.094-2.194-0.094-6.462s0.019-4.78 0.094-6.462c0.069-1.563 0.331-2.406 0.55-2.969 0.288-0.744 0.638-1.281 1.194-1.838 0.563-0.563 1.094-0.906 1.838-1.2 0.563-0.219 1.412-0.481 2.969-0.55 1.681-0.075 2.188-0.094 6.462-0.094h0.001zM15.998 0.001c-4.343 0-4.886 0.019-6.593 0.094-1.7 0.075-2.869 0.35-3.88 0.744-1.056 0.412-1.95 0.956-2.837 1.85-0.894 0.888-1.438 1.781-1.85 2.831-0.394 1.019-0.669 2.181-0.744 3.88-0.075 1.713-0.094 2.256-0.094 6.599s0.019 4.886 0.094 6.593c0.075 1.7 0.35 2.869 0.744 3.881 0.413 1.056 0.956 1.95 1.85 2.837 0.887 0.887 1.781 1.438 2.831 1.844 1.019 0.394 2.181 0.669 3.88 0.744 1.706 0.075 2.25 0.094 6.593 0.094s4.887-0.019 6.593-0.094c1.7-0.075 2.869-0.35 3.88-0.744 1.050-0.406 1.944-0.956 2.831-1.844s1.438-1.781 1.844-2.831c0.394-1.019 0.669-2.181 0.744-3.88 0.075-1.706 0.094-2.25 0.094-6.593s-0.019-4.886-0.094-6.593c-0.075-1.7-0.35-2.869-0.744-3.88-0.394-1.063-0.938-1.956-1.831-2.844-0.887-0.887-1.781-1.438-2.831-1.844-1.019-0.394-2.181-0.669-3.88-0.744-1.712-0.081-2.256-0.1-6.599-0.1l-0.001 0.001z"></path>
        </symbol>
        <symbol id="icon-icon-empty-star" viewBox="0 0 34 32">
            <path stroke-linejoin="miter" stroke-linecap="butt" stroke-miterlimit="4" stroke-width="1.6842" d="M16.053 1.359c0.29-0.688 1.289-0.688 1.579 0l3.416 8.115c0.368 0.873 1.197 1.465 2.14 1.539l8.868 0.702c0.771 0.061 1.046 0.986 0.49 1.457l-6.758 5.719c-0.724 0.612-1.044 1.579-0.821 2.502l2.066 8.549c0.167 0.694-0.609 1.303-1.28 0.898h-0.002l-7.59-4.581c-0.81-0.489-1.828-0.489-2.638 0l-7.592 4.581c-0.671 0.405-1.447-0.204-1.28-0.898l2.066-8.549c0.223-0.923-0.097-1.889-0.821-2.502l-6.758-5.719c-0.556-0.472-0.281-1.396 0.49-1.457l8.868-0.702c0.943-0.075 1.772-0.666 2.14-1.539l3.416-8.115z"></path>
        </symbol>
        <symbol id="icon-icon-facebook" viewBox="0 0 32 32">
            <path d="M29.333 16.405c0-7.409-5.969-13.415-13.333-13.415s-13.333 6.006-13.333 13.415c0 6.696 4.876 12.245 11.25 13.252v-9.374h-3.385v-3.878h3.385v-2.955c0-3.362 1.991-5.219 5.036-5.219 1.459 0 2.985 0.262 2.985 0.262v3.301h-1.681c-1.656 0-2.173 1.034-2.173 2.095v2.516h3.698l-0.591 3.878h-3.107v9.374c6.374-1.006 11.25-6.556 11.25-13.252z"></path>
        </symbol>
        <symbol id="icon-icon-favicon" viewBox="0 0 32 32">
            <path d="M31.923 14.443c-0.861-8.81-8.713-15.247-17.521-14.362-8.775 0.881-15.182 8.698-14.324 17.476s8.658 15.205 17.438 14.371c8.812-0.838 15.269-8.674 14.408-17.484zM19.996 3.775c0.195-0.001 0.341 0.039 0.523 0.089l0.039 0.011c0.071 0.357-0 0.522-0.187 0.826-0.326 0.531-0.69 1.040-1.053 1.549-0.641 0.898-1.283 1.796-1.722 2.819-0.953 2.218-0.731 4.806-0.506 7.42 0.196 2.288 0.395 4.597-0.192 6.698-0.705 2.527-2.476 4.18-4.693 5.412-0.123 0.021-0.259 0.010-0.389 0-0.027-0.002-0.054-0.004-0.081-0.006-0.017-0.001-0.034-0.002-0.050-0.003l-0.021-0.041c-0.126-0.24-0.134-0.255-0.043-0.528 0.119-0.355 0.355-0.717 0.577-1.059 0.085-0.131 0.168-0.258 0.242-0.381 0.771-1.284 1.526-2.671 1.762-4.169 0.295-1.871 0.138-3.797-0.019-5.722-0.199-2.443-0.399-4.887 0.326-7.22 0.891-2.866 2.976-4.36 5.486-5.694z"></path>
        </symbol>
        <symbol id="icon-icon-xsocials" viewBox="0 0 34 32">
            <path d="M26.684 0.457h5.195l-11.351 12.757 13.353 17.36h-10.455l-8.189-10.529-9.37 10.529h-5.199l12.141-13.646-12.81-16.472h10.721l7.402 9.624 8.561-9.624zM24.861 27.516h2.879l-18.583-24.162h-3.089l18.794 24.162z"></path>
        </symbol>
        <symbol id="icon-icon-arrow" viewBox="0 0 35 32">
            <path d="M14.122 4.56l11.533 11.44-11.533 11.44 3.755 3.787 15.352-15.227-15.352-15.227-3.755 3.787z"></path>
            <path d="M4.544 0.773l-3.755 3.787 11.533 11.44-11.533 11.44 3.755 3.787 15.352-15.227-15.352-15.227z"></path>
        </symbol>
        <symbol id="icon-icon-geo" viewBox="0 0 26 32">
            <path d="M12.8 19.2c3.53 0 6.4-2.87 6.4-6.4s-2.87-6.4-6.4-6.4c-3.53 0-6.4 2.87-6.4 6.4s2.87 6.4 6.4 6.4zM12.8 9.6c1.765 0 3.2 1.435 3.2 3.2s-1.435 3.2-3.2 3.2c-1.765 0-3.2-1.435-3.2-3.2s1.435-3.2 3.2-3.2z"></path>
            <path d="M11.872 31.702c0.271 0.193 0.595 0.297 0.928 0.297s0.657-0.104 0.928-0.297c0.486-0.344 11.918-8.598 11.872-18.902 0-7.058-5.742-12.8-12.8-12.8s-12.8 5.742-12.8 12.792c-0.046 10.312 11.386 18.566 11.872 18.91zM12.8 3.2c5.294 0 9.6 4.306 9.6 9.608 0.034 7.101-7.021 13.477-9.6 15.568-2.578-2.093-9.634-8.47-9.6-15.576 0-5.294 4.306-9.6 9.6-9.6z"></path>
        </symbol>
        <symbol id="icon-icon-mail" viewBox="0 0 40 32">
            <path d="M36 0h-32c-2.206 0-4 1.794-4 4v24c0 2.206 1.794 4 4 4h32c2.206 0 4-1.794 4-4v-24c0-2.206-1.794-4-4-4zM36 4v1.022l-16 12.446-16-12.444v-1.024h32zM4 28v-17.912l14.772 11.49c0.35 0.275 0.783 0.425 1.228 0.425s0.878-0.15 1.228-0.425l14.772-11.49 0.004 17.912h-32.004z"></path>
        </symbol>
        <symbol id="icon-icon-map" viewBox="0 0 32 32">
            <path d="M16 24l1.6-3.2v-8.227c2.754-0.715 4.8-3.2 4.8-6.173 0-3.53-2.87-6.4-6.4-6.4s-6.4 2.87-6.4 6.4c0 2.973 2.046 5.458 4.8 6.173v8.227l1.6 3.2zM12.8 6.4c0-1.765 1.435-3.2 3.2-3.2s3.2 1.435 3.2 3.2c0 1.765-1.435 3.2-3.2 3.2s-3.2-1.435-3.2-3.2z"></path>
            <path d="M22.827 13.701l-0.853 3.085c4.146 1.146 6.826 3.349 6.826 5.614 0 3.027-5.256 6.4-12.8 6.4s-12.8-3.373-12.8-6.4c0-2.266 2.68-4.469 6.827-5.616l-0.853-3.085c-5.659 1.565-9.174 4.898-9.174 8.701 0 5.382 7.029 9.6 16 9.6s16-4.218 16-9.6c0-3.803-3.515-7.136-9.173-8.699z"></path>
        </symbol>
        <symbol id="icon-icon-phone" viewBox="0 0 32 32">
            <path d="M24.77 17.336c-0.156-0.157-0.342-0.281-0.546-0.365s-0.423-0.128-0.645-0.128c-0.221 0-0.44 0.044-0.645 0.128s-0.39 0.209-0.546 0.365l-2.685 2.685c-1.245-0.371-3.567-1.213-5.039-2.685s-2.314-3.795-2.685-5.039l2.685-2.685c0.157-0.156 0.281-0.342 0.365-0.546s0.128-0.423 0.128-0.645c0-0.221-0.044-0.44-0.128-0.645s-0.209-0.39-0.365-0.546l-6.737-6.737c-0.156-0.157-0.342-0.281-0.546-0.365s-0.423-0.128-0.645-0.128c-0.221 0-0.44 0.044-0.645 0.128s-0.39 0.209-0.546 0.365l-4.568 4.568c-0.64 0.64-1 1.519-0.987 2.417 0.039 2.398 0.674 10.729 7.239 17.294s14.895 7.198 17.295 7.239h0.047c0.889 0 1.73-0.35 2.366-0.987l4.568-4.568c0.157-0.156 0.281-0.342 0.365-0.546s0.128-0.423 0.128-0.645c0-0.221-0.044-0.44-0.128-0.645s-0.209-0.39-0.365-0.546l-6.737-6.739zM24.556 28.64c-2.102-0.035-9.293-0.6-14.944-6.252-5.669-5.669-6.218-12.886-6.252-14.946l3.377-3.377 4.355 4.355-2.178 2.178c-0.198 0.198-0.344 0.442-0.423 0.71s-0.092 0.552-0.035 0.826c0.040 0.194 1.029 4.787 3.825 7.582s7.389 3.784 7.582 3.825c0.274 0.059 0.558 0.048 0.826-0.032s0.512-0.226 0.71-0.425l2.179-2.178 4.355 4.355-3.379 3.377z"></path>
        </symbol>
        <symbol id="icon-icon-cube" viewBox="0 0 32 32">
            <path d="M22.984 12.096l-0.112-0.2c-0.144-0.242-0.348-0.443-0.592-0.584l-5.368-3.096c-0.243-0.141-0.519-0.216-0.8-0.216h-0.232c-0.281 0-0.557 0.075-0.8 0.216l-5.368 3.104c-0.242 0.14-0.444 0.342-0.584 0.584l-0.112 0.2c-0.141 0.243-0.216 0.519-0.216 0.8v6.2c0 0.281 0.075 0.557 0.216 0.8l0.112 0.2c0.144 0.24 0.344 0.44 0.584 0.584l5.376 3.096c0.242 0.144 0.519 0.219 0.8 0.216h0.224c0.281-0 0.557-0.075 0.8-0.216l5.368-3.104c0.245-0.137 0.447-0.339 0.584-0.584l0.12-0.2c0.139-0.244 0.214-0.519 0.216-0.8v-6.2c-0-0.281-0.075-0.557-0.216-0.8zM15.88 9.6h0.232l4.688 2.704-4.8 2.768-4.8-2.768 4.68-2.704zM16.8 22l4.68-2.704 0.12-0.2v-5.408l-4.8 2.776v5.536z"></path>
        </symbol>
        <symbol id="icon-icon-logo" viewBox="0 0 75 32">
            <path d="M31.857 8.795c-0.271-2.767-2.737-4.789-5.504-4.511-2.756 0.277-4.769 2.732-4.499 5.489s2.719 4.776 5.477 4.514c2.768-0.263 4.796-2.725 4.526-5.492zM28.111 5.444c0.061-0 0.107 0.012 0.164 0.028l0.012 0.003c0.022 0.112-0 0.164-0.059 0.259-0.103 0.167-0.217 0.327-0.331 0.486-0.201 0.282-0.403 0.564-0.541 0.886-0.299 0.697-0.23 1.51-0.159 2.331 0.062 0.719 0.124 1.444-0.060 2.104-0.222 0.794-0.778 1.313-1.474 1.7-0.039 0.006-0.081 0.003-0.122 0-0.009-0.001-0.017-0.001-0.025-0.002-0.005-0-0.011-0.001-0.016-0.001l-0.007-0.013c-0.040-0.075-0.042-0.080-0.013-0.166 0.037-0.111 0.112-0.225 0.181-0.333 0.027-0.041 0.053-0.081 0.076-0.12 0.242-0.403 0.479-0.839 0.554-1.31 0.093-0.588 0.043-1.193-0.006-1.797-0.063-0.767-0.125-1.535 0.102-2.268 0.28-0.9 0.935-1.37 1.723-1.789z"></path>
            <path d="M43.689 23.395c-0.314-2.686-2.746-4.61-5.432-4.297-2.688 0.313-4.613 2.746-4.299 5.433s2.748 4.612 5.435 4.297c2.686-0.315 4.609-2.747 4.296-5.433zM38.265 20.224c0.65-0.048 1.258 0.11 1.782 0.5 0.848 0.631 1.281 1.673 1.424 2.694 0.152 1.077 0.137 2.573-0.565 3.475-0.383 0.492-0.867 0.691-1.466 0.765-0.639 0.062-1.278-0.11-1.8-0.482-0.825-0.595-1.249-1.573-1.402-2.553-0.175-1.116-0.169-2.678 0.555-3.62 0.385-0.501 0.866-0.7 1.472-0.778z"></path>
            <path d="M15.783 0.245c0.872-0.114 1.858-0.025 2.706 0.189 0.516 0.13 1.030 0.307 1.558 0.381 0.303 0.043 0.621 0.039 0.927 0.045 0.050 0.849 0.213 2.883 0.115 3.63-0.156 0.030-0.276 0.022-0.433 0-0.161-0.186-0.237-0.602-0.333-0.844-0.354-0.885-1.055-1.564-1.934-1.925-1.102-0.452-2.417-0.394-3.502 0.075-1.14 0.493-2.069 1.478-2.522 2.633-0.701 1.788-0.696 4.083 0.090 5.843 0.545 1.22 1.515 2.293 2.784 2.769 1.211 0.455 2.528 0.32 3.688-0.212 0.518-0.264 0.997-0.657 1.306-1.156 0.174-0.282 0.303-0.818 0.579-1l0.077 0.031c0.297 0.376 0.408 1.55 0.506 2.055-1.118 0.986-2.468 1.639-3.951 1.835-1.941 0.255-3.967-0.137-5.535-1.347-1.428-1.102-2.295-2.833-2.509-4.607-0.249-2.062 0.206-4.142 1.511-5.783 1.202-1.512 2.971-2.396 4.874-2.614z"></path>
            <path d="M52.235 5.142c-0.52-0.129-1.148-0.199-1.681-0.133-1.243 0.122-2.306 0.601-3.114 1.576-0.895 1.092-1.32 2.495-1.182 3.9 0.124 1.198 0.675 2.389 1.63 3.147 1.004 0.797 2.422 1.021 3.668 0.874 1.106-0.131 2.086-0.608 2.772-1.501 0.314-0.408 0.542-0.869 0.721-1.35-0.022-0.021-0.044-0.042-0.066-0.064-0.106-0.104-0.215-0.212-0.358-0.255-0.013 0.006-0.023 0.010-0.033 0.014-0.043 0.018-0.061 0.026-0.097 0.080-0.591 0.871-1.269 1.447-2.328 1.645-0.825 0.154-1.646 0.012-2.338-0.473-0.551-0.387-0.986-0.957-1.24-1.578 1.266-0.751 2.642-1.511 4.099-1.809 0.288-0.059 0.582-0.092 0.875-0.125 0.308-0.035 0.615-0.069 0.914-0.134 0.2-0.043 0.344-0.084 0.412-0.296 0.17-0.533-0.099-1.403-0.367-1.862-0.491-0.84-1.353-1.423-2.288-1.655zM50.947 5.989c0.237 0.001 0.49 0.018 0.718 0.081 0.386 0.106 0.735 0.335 0.923 0.696 0.13 0.25 0.232 0.651 0.13 0.924-0.086 0.23-0.272 0.387-0.477 0.508-0.256 0.151-0.563 0.248-0.859 0.342-0.101 0.032-0.2 0.063-0.295 0.096-0.517 0.179-1.026 0.373-1.519 0.612-0.113 0.050-0.255 0.14-0.407 0.236-0.285 0.18-0.602 0.38-0.817 0.377-0.115-0.096-0.144-0.176-0.156-0.32-0.080-0.958 0.306-2.047 0.925-2.771 0.454-0.53 1.166-0.726 1.834-0.78z"></path>
            <path d="M61.547 5.050c-0.368-0.050-0.74-0.064-1.111-0.042-1.262 0.103-2.328 0.563-3.154 1.545-0.908 1.088-1.344 2.493-1.211 3.904 0.111 1.168 0.657 2.363 1.577 3.114 0.991 0.808 2.469 1.084 3.716 0.943 1.11-0.126 2.107-0.647 2.8-1.528 0.319-0.409 0.569-0.868 0.739-1.358-0.022-0.019-0.044-0.039-0.067-0.060-0.115-0.105-0.251-0.229-0.396-0.241-0.594 0.894-1.305 1.524-2.382 1.741-0.812 0.164-1.6 0.044-2.297-0.418-0.598-0.397-1.033-0.975-1.343-1.616 1.369-0.931 3.053-1.645 4.68-1.946 0.202-0.037 0.407-0.053 0.612-0.069 0.17-0.013 0.339-0.026 0.507-0.052 0.219-0.033 0.44-0.083 0.489-0.333 0.138-0.704-0.14-1.552-0.556-2.118-0.627-0.854-1.567-1.322-2.603-1.466zM60.345 6.023c0.424-0.034 0.838-0.055 1.246 0.095 0.392 0.143 0.708 0.426 0.879 0.81 0.113 0.252 0.162 0.535 0.055 0.798-0.061 0.148-0.172 0.283-0.301 0.378-0.308 0.225-1.070 0.491-1.732 0.722-0.326 0.114-0.629 0.22-0.841 0.308-0.34 0.152-0.669 0.336-0.996 0.52-0.182 0.102-0.363 0.204-0.546 0.3-0.154-0.938-0.057-1.894 0.453-2.716 0.422-0.679 1.017-1.038 1.783-1.213z"></path>
            <path d="M28.907 16.304c1.004-0.006 3.825-0.131 4.586 0.070 0.064 0.087 0.058 0.089 0.050 0.198-0.176 0.296-0.551 0.416-0.812 0.628-0.15 0.122-0.286 0.297-0.331 0.488-0.168 0.709-0.102 1.528-0.102 2.256l-0.020 3.074c-0.005 0.733 0.018 1.483-0.068 2.212-0.123 1.043-0.583 2.012-1.426 2.662-1.050 0.81-2.517 0.99-3.801 0.816-1.124-0.152-2.221-0.639-2.921-1.562-0.634-0.837-0.795-1.815-0.66-2.838 0.036-0.181 0.081-0.355 0.146-0.528 0.239-0.638 0.707-1.162 1.339-1.433 0.667-0.286 1.508-0.307 2.178-0.018 0.326 0.14 0.531 0.381 0.651 0.715 0.073 0.204 0.097 0.379 0.004 0.577-0.27 0.255-0.878-0.087-1.256 0.019-0.349 0.098-0.615 0.342-0.782 0.658-0.29 0.549-0.296 1.268-0.089 1.846 0.184 0.515 0.603 0.931 1.095 1.159 0.585 0.27 1.407 0.338 2.018 0.111 0.473-0.176 0.821-0.552 1.012-1.015 0.164-0.398 0.242-0.856 0.28-1.283 0.087-0.963 0.196-6.777-0.016-7.406-0.224-0.663-0.987-0.683-1.161-1.087 0-0.098 0.002-0.165 0.049-0.251 0.012-0.023 0.025-0.045 0.038-0.067z"></path>
            <path d="M49.651 27.076c0.428-1.060 0.798-2.152 1.192-3.225 0.308-0.836 0.688-1.7 0.876-2.57 0.040-0.185 0.058-0.369 0.006-0.554-0.158-0.565-0.887-0.52-1.052-0.956 0.023-0.096 0.009-0.137 0.101-0.196 0.169-0.108 3.144-0.119 3.509-0.073 0.121 0.015 0.208 0.042 0.288 0.14 0.008 0.21-0.042 0.305-0.231 0.412-0.303 0.171-0.688 0.258-0.915 0.539-0.357 0.443-1.702 4.23-2.034 5.091l-1.109 2.878c-0.279 0.723-0.541 1.508-0.956 2.166-0.252 0.398-0.591 0.783-1.001 1.020-0.599 0.345-1.359 0.408-2.022 0.222-0.515-0.145-0.986-0.464-1.233-0.949-0.195-0.384-0.243-0.895-0.1-1.304 0.107-0.305 0.354-0.557 0.648-0.689 0.19-0.085 0.502-0.158 0.699-0.051 0.469 0.255 0.163 1.097 0.343 1.546 0.061 0.151 0.149 0.257 0.303 0.319 0.251 0.101 0.686-0.037 0.912-0.147 0.764-0.373 1.085-1.573 1.339-2.315-0.321 0.006-0.691 0.045-1.007-0.010-0.049-0.008-0.111-0.021-0.155-0.047-0.105-0.061-0.172-0.171-0.226-0.276-0.249-0.486-0.418-1.051-0.613-1.563l-1.212-3.191c-0.239-0.627-0.455-1.281-0.748-1.884-0.218-0.45-0.51-0.909-0.959-1.157-0.223-0.123-0.516-0.121-0.667-0.345-0.026-0.152 0.001-0.245 0.048-0.39 0.804-0.033 4.036-0.117 4.63 0.049 0.033 0.113 0.038 0.27-0.007 0.382-0.071 0.176-0.412 0.231-0.569 0.294-0.169 0.068-0.316 0.171-0.382 0.349-0.072 0.197 0.024 0.513 0.081 0.712 0.246 0.872 0.643 1.734 0.97 2.583 0.409 1.060 0.777 2.16 1.253 3.191z"></path>
            <path d="M43.961 1.037c0.714-0.037 1.391 0.054 2.015 0.428 0.455 0.273 0.841 0.683 0.956 1.214 0.063 0.288 0.043 0.593-0.125 0.844-0.182 0.272-0.55 0.484-0.873 0.524-0.194 0.024-0.422-0.002-0.578-0.128-0.361-0.292-0.193-0.81-0.261-1.209-0.037-0.215-0.149-0.395-0.335-0.512-0.281-0.176-0.72-0.235-1.039-0.146-0.279 0.077-0.48 0.274-0.608 0.528-0.409 0.807-0.183 1.861 0.070 2.677 0.856 0.021 1.716 0.004 2.573 0.003 0.002 0.363-0.004 0.721-0.032 1.083-0.827-0.001-1.656-0.013-2.483 0.018-0.053 0.85-0.032 1.714-0.037 2.566-0.008 1.275-0.134 2.683 0.159 3.924 0.044 0.115 0.093 0.223 0.153 0.331 0.258 0.469 0.416 0.419 0.875 0.57 0.156 0.051 0.247 0.115 0.315 0.26-0.006 0.123-0.025 0.17-0.098 0.269-0.041 0.026-0.057 0.041-0.11 0.050-0.166 0.032-4.158 0.015-4.384-0.023-0.155-0.026-0.264-0.060-0.362-0.192 0.064-0.377 0.484-0.35 0.736-0.594 0.289-0.279 0.434-0.653 0.514-1.040 0.175-0.842 0.107-1.795 0.104-2.655l-0.016-3.479-1.633-0.006c-0.033-0.359-0.035-0.722-0.045-1.083l1.626-0.001c-0.080-0.243-0.159-0.496-0.194-0.75-0.104-0.751 0.071-1.515 0.533-2.123 0.614-0.809 1.601-1.222 2.585-1.35z"></path>
            <path d="M37.204 1.038c0.658-0.055 1.289-0.007 1.88 0.316 0.472 0.258 0.874 0.684 1.019 1.212 0.090 0.327 0.099 0.741-0.085 1.038-0.131 0.211-0.349 0.334-0.589 0.379-0.219 0.041-0.508 0.040-0.69-0.106-0.345-0.277-0.114-0.81-0.191-1.178-0.046-0.221-0.225-0.409-0.418-0.515-0.305-0.167-0.744-0.188-1.074-0.088-0.274 0.082-0.481 0.261-0.606 0.518-0.364 0.743-0.088 1.882 0.162 2.622 0.82 0.049 1.658 0.011 2.48 0.015 0.021 0.367 0.002 0.726-0.020 1.092-0.835-0.002-1.67 0.001-2.505 0.009-0.038 1.044-0.054 2.088-0.046 3.133-0.003 1.076-0.11 2.285 0.206 3.323 0.347 0.76 1.067 0.888 1.237 1.294-0.026 0.074-0.015 0.087-0.089 0.13-0.263 0.157-4.261 0.126-4.618 0.042-0.014-0.049-0.032-0.105-0.034-0.155-0.011-0.317 0.489-0.45 0.681-0.64 0.267-0.264 0.399-0.753 0.462-1.117 0.139-0.818 0.095-1.72 0.094-2.549l-0.007-3.463-1.628-0.007c-0.025-0.361-0.024-0.721-0.023-1.083 0.519 0.006 1.039 0.005 1.558-0.002-0.080-0.265-0.165-0.53-0.206-0.804-0.111-0.745 0.051-1.482 0.507-2.088 0.612-0.814 1.565-1.191 2.545-1.329z"></path>
        </symbol>
        <symbol id="icon-icon-quality" viewBox="0 0 75 32">
            <path d="M16.619 24.789c0.256 0 0.483 0.1 0.683 0.299 0.213 0.213 0.32 0.455 0.32 0.725 0 0.299-0.142 0.583-0.427 0.853-0.27 0.27-0.626 0.512-1.067 0.725-0.427 0.213-0.882 0.377-1.365 0.491-0.469 0.128-0.903 0.192-1.301 0.192-0.868 0-1.572-0.085-2.112-0.256s-0.996-0.363-1.365-0.576c-0.37-0.213-0.732-0.405-1.088-0.576-0.341-0.171-0.754-0.256-1.237-0.256-0.27 0-0.491 0.043-0.661 0.128s-0.348 0.171-0.533 0.256c-0.185 0.1-0.42 0.149-0.704 0.149-0.299 0-0.548-0.114-0.747-0.341s-0.299-0.476-0.299-0.747c0-0.455 0.206-0.761 0.619-0.917l4.16-1.536 1.941 0.341-3.904 1.408 0.917-0.576c0.526 0 0.988 0.078 1.387 0.235 0.412 0.156 0.804 0.334 1.173 0.533 0.384 0.213 0.775 0.398 1.173 0.555s0.86 0.235 1.387 0.235c0.441 0 0.811-0.071 1.109-0.213s0.547-0.284 0.747-0.427c0.242-0.171 0.448-0.334 0.619-0.491 0.185-0.142 0.377-0.213 0.576-0.213zM16.235 16.533c0 1.081-0.178 2.091-0.533 3.029-0.356 0.924-0.861 1.735-1.515 2.432-0.64 0.697-1.401 1.244-2.283 1.643-0.882 0.384-1.849 0.576-2.901 0.576-1.038 0-1.998-0.192-2.88-0.576-0.882-0.398-1.65-0.946-2.304-1.643-0.64-0.697-1.138-1.508-1.493-2.432-0.341-0.939-0.512-1.948-0.512-3.029s0.171-2.084 0.512-3.008c0.356-0.939 0.853-1.756 1.493-2.453 0.654-0.697 1.422-1.237 2.304-1.621 0.882-0.398 1.842-0.597 2.88-0.597 1.052 0 2.020 0.199 2.901 0.597 0.882 0.384 1.643 0.924 2.283 1.621 0.654 0.697 1.159 1.515 1.515 2.453 0.355 0.924 0.533 1.927 0.533 3.008zM13.931 16.533c0-1.052-0.213-1.998-0.64-2.837-0.412-0.839-0.988-1.5-1.728-1.984s-1.593-0.725-2.56-0.725c-0.953 0-1.799 0.242-2.539 0.725s-1.316 1.145-1.728 1.984c-0.412 0.825-0.619 1.771-0.619 2.837 0 1.052 0.206 1.998 0.619 2.837s0.988 1.5 1.728 1.984c0.74 0.484 1.586 0.725 2.539 0.725 0.967 0 1.82-0.242 2.56-0.725s1.316-1.145 1.728-1.984c0.427-0.839 0.64-1.785 0.64-2.837zM27.002 12.779c0.299 0 0.547 0.107 0.747 0.32 0.213 0.199 0.32 0.455 0.32 0.768v5.611c0 1.479-0.413 2.638-1.237 3.477-0.825 0.825-1.991 1.237-3.499 1.237-1.493 0-2.653-0.412-3.477-1.237-0.811-0.839-1.216-1.998-1.216-3.477v-5.611c0-0.313 0.099-0.569 0.299-0.768 0.199-0.213 0.455-0.32 0.768-0.32 0.299 0 0.547 0.107 0.747 0.32 0.213 0.199 0.32 0.455 0.32 0.768v5.611c0 0.924 0.213 1.614 0.64 2.069 0.441 0.455 1.081 0.683 1.92 0.683 0.853 0 1.5-0.228 1.941-0.683s0.661-1.145 0.661-2.069v-5.611c0-0.313 0.099-0.569 0.299-0.768 0.199-0.213 0.455-0.32 0.768-0.32zM40.23 12.608c0.313 0 0.569 0.107 0.768 0.32 0.199 0.199 0.299 0.455 0.299 0.768v9.216c0 0.313-0.099 0.576-0.299 0.789-0.199 0.199-0.455 0.299-0.768 0.299-0.299 0-0.555-0.1-0.768-0.299-0.199-0.213-0.299-0.476-0.299-0.789v-1.536l0.448 0.064c0 0.256-0.107 0.54-0.32 0.853-0.199 0.313-0.477 0.619-0.832 0.917-0.356 0.284-0.775 0.526-1.259 0.725-0.484 0.185-1.003 0.277-1.557 0.277-0.981 0-1.863-0.249-2.645-0.747-0.782-0.512-1.401-1.209-1.856-2.091s-0.683-1.884-0.683-3.008c0-1.152 0.227-2.162 0.683-3.029 0.455-0.882 1.067-1.572 1.835-2.069 0.782-0.498 1.65-0.747 2.603-0.747 0.611 0 1.173 0.1 1.685 0.299 0.526 0.199 0.981 0.455 1.365 0.768s0.675 0.647 0.875 1.003c0.213 0.341 0.32 0.668 0.32 0.981l-0.661 0.064v-1.941c0-0.299 0.099-0.555 0.299-0.768 0.213-0.213 0.469-0.32 0.768-0.32zM35.878 22.251c0.668 0 1.259-0.171 1.771-0.512s0.91-0.804 1.195-1.387c0.284-0.597 0.427-1.259 0.427-1.984 0-0.74-0.142-1.401-0.427-1.984s-0.683-1.045-1.195-1.387-1.102-0.512-1.771-0.512c-0.654 0-1.237 0.171-1.749 0.512-0.498 0.341-0.896 0.804-1.195 1.387-0.285 0.583-0.427 1.244-0.427 1.984 0 0.725 0.142 1.387 0.427 1.984 0.299 0.583 0.697 1.045 1.195 1.387 0.512 0.341 1.095 0.512 1.749 0.512zM46.589 22.912c0 0.313-0.107 0.576-0.32 0.789-0.199 0.199-0.448 0.299-0.747 0.299s-0.555-0.1-0.768-0.299c-0.199-0.213-0.299-0.476-0.299-0.789v-13.611c0-0.313 0.107-0.569 0.32-0.768 0.213-0.213 0.469-0.32 0.768-0.32 0.313 0 0.562 0.107 0.747 0.32 0.199 0.199 0.299 0.455 0.299 0.768v13.611zM51.769 22.912c0 0.313-0.099 0.576-0.299 0.789-0.199 0.199-0.455 0.299-0.768 0.299-0.299 0-0.555-0.1-0.768-0.299-0.199-0.213-0.299-0.476-0.299-0.789v-9.131c0-0.313 0.1-0.569 0.299-0.768 0.213-0.213 0.469-0.32 0.768-0.32 0.313 0 0.569 0.107 0.768 0.32 0.199 0.199 0.299 0.455 0.299 0.768v9.131zM50.681 11.285c-0.412 0-0.711-0.071-0.896-0.213-0.185-0.156-0.277-0.412-0.277-0.768v-0.341c0-0.356 0.1-0.604 0.299-0.747s0.498-0.213 0.896-0.213c0.427 0 0.733 0.078 0.917 0.235 0.185 0.142 0.277 0.384 0.277 0.725v0.341c0 0.37-0.099 0.626-0.299 0.768-0.185 0.142-0.491 0.213-0.917 0.213zM54.49 12.907h5.013c0.284 0 0.519 0.1 0.704 0.299 0.199 0.185 0.299 0.42 0.299 0.704 0 0.27-0.1 0.498-0.299 0.683-0.185 0.185-0.42 0.277-0.704 0.277h-5.013c-0.285 0-0.526-0.092-0.725-0.277-0.185-0.199-0.277-0.434-0.277-0.704 0-0.284 0.092-0.519 0.277-0.704 0.199-0.185 0.441-0.277 0.725-0.277zM56.73 10.133c0.313 0 0.569 0.107 0.768 0.32 0.199 0.199 0.299 0.455 0.299 0.768v9.899c0 0.256 0.043 0.462 0.128 0.619s0.199 0.263 0.341 0.32c0.156 0.057 0.313 0.085 0.469 0.085s0.291-0.028 0.405-0.085c0.128-0.057 0.277-0.085 0.448-0.085s0.327 0.078 0.469 0.235c0.142 0.156 0.213 0.37 0.213 0.64 0 0.341-0.185 0.619-0.555 0.832s-0.768 0.32-1.195 0.32c-0.242 0-0.526-0.021-0.853-0.064s-0.647-0.149-0.96-0.32c-0.299-0.171-0.548-0.441-0.747-0.811-0.199-0.384-0.299-0.917-0.299-1.6v-9.984c0-0.313 0.099-0.569 0.299-0.768 0.213-0.213 0.469-0.32 0.768-0.32zM71.21 12.693c0.313 0 0.569 0.107 0.768 0.32 0.199 0.199 0.299 0.455 0.299 0.768v9.173c0 1.252-0.242 2.268-0.725 3.051-0.469 0.782-1.109 1.351-1.92 1.707-0.797 0.37-1.7 0.555-2.709 0.555-0.512 0-1.024-0.050-1.536-0.149-0.512-0.085-0.932-0.213-1.259-0.384-0.341-0.156-0.583-0.348-0.725-0.576s-0.164-0.476-0.064-0.747c0.099-0.341 0.27-0.576 0.512-0.704 0.242-0.114 0.491-0.121 0.747-0.021 0.242 0.1 0.562 0.228 0.96 0.384s0.853 0.235 1.365 0.235c0.697 0 1.287-0.114 1.771-0.341s0.846-0.583 1.088-1.067c0.256-0.484 0.384-1.109 0.384-1.877v-1.472l0.341 0.512c-0.228 0.469-0.526 0.86-0.896 1.173s-0.811 0.555-1.323 0.725c-0.498 0.171-1.053 0.256-1.664 0.256-0.782 0-1.458-0.171-2.027-0.512-0.555-0.356-0.981-0.839-1.28-1.451-0.299-0.626-0.448-1.337-0.448-2.133v-6.336c0-0.313 0.099-0.569 0.299-0.768 0.199-0.213 0.455-0.32 0.768-0.32 0.299 0 0.547 0.107 0.747 0.32 0.213 0.199 0.32 0.455 0.32 0.768v5.76c0 0.939 0.206 1.628 0.619 2.069 0.412 0.427 1.024 0.64 1.835 0.64 0.54 0 1.010-0.114 1.408-0.341s0.711-0.54 0.939-0.939c0.227-0.412 0.341-0.889 0.341-1.429v-5.76c0-0.313 0.099-0.569 0.299-0.768 0.213-0.213 0.469-0.32 0.768-0.32z"></path>
        </symbol>
        <symbol id="icon-icon-welcome" viewBox="0 0 172 32">
            <path d="M34.501 1.851c0.525 0 1.011 0.197 1.457 0.591 0.446 0.368 0.67 0.88 0.67 1.536 0 0.184-0.039 0.407-0.118 0.67l-8.074 23.631c-0.131 0.394-0.367 0.696-0.709 0.906s-0.696 0.328-1.063 0.354c-0.367 0-0.735-0.105-1.103-0.315s-0.643-0.525-0.827-0.945l-6.223-14.572 0.354 0.158-6.144 14.415c-0.21 0.42-0.499 0.735-0.866 0.945-0.341 0.21-0.709 0.315-1.103 0.315-0.341-0.026-0.683-0.145-1.024-0.354s-0.578-0.512-0.709-0.906l-8.074-23.631c-0.079-0.263-0.118-0.486-0.118-0.67 0-0.656 0.236-1.168 0.709-1.536 0.473-0.394 0.958-0.591 1.457-0.591 0.42 0 0.801 0.118 1.142 0.354 0.368 0.21 0.617 0.525 0.748 0.945l6.814 20.322h-0.709l5.986-14.651c0.184-0.394 0.433-0.709 0.748-0.945 0.341-0.236 0.722-0.341 1.142-0.315 0.42-0.026 0.788 0.079 1.103 0.315 0.341 0.236 0.591 0.551 0.748 0.945l5.671 14.218-0.591 0.315 6.774-20.204c0.131-0.42 0.381-0.735 0.748-0.945 0.367-0.236 0.761-0.354 1.182-0.354zM49.291 29.932c-2.179 0-4.070-0.446-5.671-1.339-1.602-0.919-2.849-2.166-3.742-3.742-0.866-1.602-1.3-3.426-1.3-5.474 0-2.311 0.459-4.28 1.378-5.908 0.945-1.654 2.166-2.914 3.663-3.781 1.497-0.893 3.085-1.339 4.766-1.339 1.286 0 2.507 0.263 3.663 0.788 1.155 0.499 2.179 1.208 3.072 2.127 0.919 0.893 1.641 1.956 2.166 3.19 0.525 1.208 0.801 2.534 0.827 3.978-0.026 0.525-0.236 0.958-0.63 1.3s-0.853 0.512-1.378 0.512h-15.321l-0.945-3.348h14.809l-0.748 0.709v-0.985c-0.053-0.919-0.354-1.72-0.906-2.402-0.551-0.709-1.234-1.247-2.048-1.615-0.814-0.394-1.667-0.591-2.56-0.591-0.788 0-1.549 0.131-2.284 0.394-0.709 0.236-1.352 0.63-1.93 1.182-0.551 0.551-0.998 1.287-1.339 2.206-0.315 0.893-0.473 2.009-0.473 3.348 0 1.444 0.302 2.704 0.906 3.781s1.418 1.917 2.442 2.521c1.024 0.578 2.153 0.866 3.387 0.866 0.971 0 1.772-0.092 2.402-0.276 0.63-0.21 1.155-0.46 1.575-0.748s0.788-0.564 1.103-0.827c0.394-0.236 0.788-0.354 1.182-0.354 0.473 0 0.866 0.171 1.182 0.512 0.315 0.315 0.473 0.696 0.473 1.142 0 0.578-0.289 1.103-0.866 1.575-0.709 0.683-1.694 1.287-2.954 1.812-1.234 0.525-2.534 0.788-3.899 0.788zM66.818 27.53c0 0.578-0.197 1.063-0.591 1.457-0.368 0.367-0.827 0.551-1.378 0.551s-1.024-0.184-1.418-0.551c-0.368-0.394-0.551-0.88-0.551-1.457v-25.127c0-0.578 0.197-1.050 0.591-1.418 0.394-0.394 0.866-0.591 1.418-0.591 0.577 0 1.037 0.197 1.378 0.591 0.368 0.368 0.551 0.84 0.551 1.418v25.127zM81.472 8.35c1.418 0 2.678 0.158 3.781 0.473 1.103 0.289 1.956 0.709 2.56 1.26 0.63 0.525 0.945 1.142 0.945 1.851 0 0.446-0.131 0.866-0.394 1.26-0.263 0.368-0.656 0.551-1.182 0.551-0.368 0-0.683-0.066-0.945-0.197-0.236-0.131-0.46-0.289-0.67-0.473s-0.473-0.368-0.788-0.551c-0.289-0.158-0.722-0.289-1.3-0.394-0.551-0.105-1.050-0.158-1.497-0.158-1.391 0-2.599 0.315-3.623 0.945-0.998 0.63-1.785 1.483-2.363 2.56-0.551 1.076-0.827 2.297-0.827 3.663s0.276 2.586 0.827 3.663c0.578 1.076 1.352 1.93 2.324 2.56 0.998 0.63 2.153 0.945 3.466 0.945 0.788 0 1.431-0.052 1.93-0.158 0.499-0.131 0.932-0.289 1.3-0.473 0.394-0.236 0.722-0.473 0.985-0.709 0.289-0.263 0.683-0.394 1.182-0.394 0.578 0 1.011 0.184 1.3 0.551 0.315 0.341 0.473 0.775 0.473 1.3 0 0.578-0.354 1.142-1.063 1.694-0.683 0.525-1.602 0.958-2.757 1.3s-2.429 0.512-3.82 0.512c-2.048 0-3.833-0.473-5.356-1.418-1.497-0.945-2.665-2.232-3.505-3.86-0.814-1.628-1.221-3.466-1.221-5.514 0-2.074 0.433-3.912 1.3-5.514 0.866-1.628 2.074-2.914 3.623-3.86s3.321-1.418 5.317-1.418zM112.568 19.18c0 2.101-0.46 3.965-1.378 5.593-0.919 1.602-2.166 2.862-3.742 3.781s-3.348 1.378-5.317 1.378c-1.969 0-3.742-0.46-5.317-1.378s-2.836-2.179-3.781-3.781c-0.919-1.628-1.378-3.492-1.378-5.593 0-2.127 0.459-3.991 1.378-5.593 0.945-1.628 2.206-2.901 3.781-3.82 1.575-0.945 3.348-1.418 5.317-1.418s3.742 0.473 5.317 1.418c1.575 0.919 2.822 2.192 3.742 3.82 0.919 1.602 1.378 3.466 1.378 5.593zM108.63 19.18c0-1.444-0.289-2.691-0.866-3.742-0.578-1.076-1.365-1.917-2.363-2.521-0.972-0.63-2.061-0.945-3.269-0.945s-2.311 0.315-3.308 0.945c-0.998 0.604-1.786 1.444-2.363 2.521-0.578 1.050-0.866 2.297-0.866 3.742 0 1.392 0.289 2.626 0.866 3.702s1.365 1.917 2.363 2.521c0.998 0.604 2.1 0.906 3.308 0.906s2.297-0.302 3.269-0.906c0.998-0.604 1.785-1.444 2.363-2.521s0.866-2.311 0.866-3.702zM127.424 8.468c1.943 0 3.439 0.486 4.49 1.457 1.050 0.945 1.746 2.232 2.087 3.86l-0.63-0.197 0.276-0.63c0.341-0.683 0.853-1.365 1.536-2.048 0.709-0.709 1.549-1.287 2.521-1.733 0.971-0.473 2.009-0.709 3.111-0.709 1.812 0 3.216 0.394 4.214 1.182 0.998 0.761 1.694 1.799 2.087 3.111 0.394 1.287 0.591 2.731 0.591 4.332v10.437c0 0.578-0.184 1.063-0.551 1.457-0.368 0.367-0.84 0.551-1.418 0.551-0.551 0-1.024-0.184-1.418-0.551-0.368-0.394-0.551-0.88-0.551-1.457v-10.398c0-0.919-0.131-1.759-0.394-2.521-0.236-0.761-0.67-1.365-1.3-1.812-0.604-0.473-1.444-0.709-2.521-0.709-1.024 0-1.943 0.236-2.757 0.709-0.788 0.446-1.405 1.050-1.851 1.812s-0.67 1.602-0.67 2.521v10.398c0 0.578-0.184 1.063-0.551 1.457-0.368 0.367-0.84 0.551-1.418 0.551s-1.050-0.184-1.418-0.551c-0.368-0.394-0.551-0.88-0.551-1.457v-10.437c0-0.919-0.131-1.759-0.394-2.521-0.236-0.761-0.656-1.365-1.26-1.812s-1.444-0.67-2.521-0.67c-1.024 0-1.93 0.223-2.718 0.67s-1.405 1.050-1.851 1.812c-0.42 0.761-0.63 1.602-0.63 2.521v10.437c0 0.578-0.197 1.063-0.591 1.457-0.368 0.367-0.827 0.551-1.378 0.551-0.578 0-1.050-0.184-1.418-0.551-0.368-0.394-0.551-0.88-0.551-1.457v-16.699c0-0.578 0.184-1.050 0.551-1.418 0.368-0.394 0.84-0.591 1.418-0.591 0.551 0 1.011 0.197 1.378 0.591 0.394 0.368 0.591 0.84 0.591 1.418v2.324l-0.748 0.433c0.184-0.578 0.486-1.168 0.906-1.772s0.945-1.155 1.575-1.654c0.656-0.499 1.378-0.906 2.166-1.221s1.641-0.473 2.56-0.473zM162.868 29.932c-2.179 0-4.070-0.446-5.671-1.339-1.602-0.919-2.849-2.166-3.742-3.742-0.866-1.602-1.3-3.426-1.3-5.474 0-2.311 0.46-4.28 1.378-5.908 0.945-1.654 2.166-2.914 3.663-3.781 1.497-0.893 3.085-1.339 4.766-1.339 1.287 0 2.508 0.263 3.663 0.788 1.155 0.499 2.179 1.208 3.072 2.127 0.919 0.893 1.641 1.956 2.166 3.19 0.525 1.208 0.801 2.534 0.827 3.978-0.026 0.525-0.236 0.958-0.63 1.3s-0.853 0.512-1.378 0.512h-15.321l-0.945-3.348h14.809l-0.748 0.709v-0.985c-0.052-0.919-0.354-1.72-0.906-2.402-0.551-0.709-1.234-1.247-2.048-1.615-0.814-0.394-1.667-0.591-2.56-0.591-0.788 0-1.549 0.131-2.284 0.394-0.709 0.236-1.352 0.63-1.93 1.182-0.551 0.551-0.998 1.287-1.339 2.206-0.315 0.893-0.473 2.009-0.473 3.348 0 1.444 0.302 2.704 0.906 3.781s1.418 1.917 2.442 2.521c1.024 0.578 2.153 0.866 3.387 0.866 0.972 0 1.772-0.092 2.402-0.276 0.63-0.21 1.155-0.46 1.575-0.748s0.788-0.564 1.103-0.827c0.394-0.236 0.788-0.354 1.182-0.354 0.473 0 0.866 0.171 1.182 0.512 0.315 0.315 0.473 0.696 0.473 1.142 0 0.578-0.289 1.103-0.866 1.575-0.709 0.683-1.694 1.287-2.954 1.812-1.234 0.525-2.534 0.788-3.899 0.788z"></path>
        </symbol>
    </defs>
</svg>